<svg width="25" height="24" viewBox="0 0 25 24" fill="none" xmlns="http://www.w3.org/2000/svg">
<path d="M16.8003 11C18.4603 11 19.7903 9.66 19.7903 8C19.7903 6.34 18.4603 5 16.8003 5C15.1403 5 13.8003 6.34 13.8003 8C13.8003 9.66 15.1403 11 16.8003 11ZM8.80029 11C10.4603 11 11.7903 9.66 11.7903 8C11.7903 6.34 10.4603 5 8.80029 5C7.14029 5 5.80029 6.34 5.80029 8C5.80029 9.66 7.14029 11 8.80029 11ZM8.80029 13C6.47029 13 1.80029 14.17 1.80029 16.5V19H15.8003V16.5C15.8003 14.17 11.1303 13 8.80029 13ZM16.8003 13C16.5103 13 16.1803 13.02 15.8303 13.05C16.9903 13.89 17.8003 15.02 17.8003 16.5V19H23.8003V16.5C23.8003 14.17 19.1303 13 16.8003 13Z" fill="#212121"/>
</svg>
